<?xml version="1.0" encoding="UTF-8"?>
<svg xmlns="http://www.w3.org/2000/svg" version="1.1" viewBox="0 0 315 122">
  <!-- Generator: Adobe Illustrator 28.6.0, SVG Export Plug-In . SVG Version: 1.2.0 Build 709)  -->
  <g>
    <g id="Vrstva_1">
      <g>
        <g>
          <rect x="15.1" y="10.2" width="107.1" height="99.6" fill="#1a1a18"/>
          <path d="M114.6,92.5c-5.6,3.1-12,4.9-18.9,4.8-17.8-.3-29.1-10.3-34.8-20.7l8.8-8.8c4.2,11.1,15.1,17.7,25.8,17.7s14-2.8,19-7.5v14.5h0ZM57,101.5h15.4l-24.4-34.7,28-28c8.1-8.1,18.5-10.2,29.9-6.6l9-9c-13.7-7.8-33.5-6-45.9,6l-27.8,27.8-18.6-26.6v21.9l34.5,49.2Z" fill="#fff" fill-rule="evenodd"/>
        </g>
        <path d="M159.7,35.6l8.1-8.2h-4.6l-6.4,6.9c-.3.3-.6.7-.9,1-.3.4-.6.7-.9,1.1h0v-9.1h-3.7v19.3h3.7v-7.1l2.1-2,6.9,9.1h4.4l-8.6-11.1h0ZM188.2,27.4h-3.8v11.7c0,1.3-.2,2.3-.6,3.1-.4.8-1,1.4-1.7,1.8-.8.4-1.7.6-2.7.6-1,0-1.8-.2-2.5-.6-.7-.4-1.3-1-1.7-1.8-.4-.8-.6-1.9-.6-3.1v-11.7h-3.8v11.5c0,1.4.2,2.7.6,3.7.4,1,1,1.9,1.7,2.5.8.6,1.6,1.1,2.7,1.4,1,.3,2.2.5,3.5.5,1.3,0,2.5-.2,3.6-.5,1.1-.3,2-.8,2.8-1.5.8-.7,1.4-1.5,1.8-2.5.4-1,.6-2.3.7-3.7v-11.4h0ZM206.7,44.2h-9.6v-16.8h-3.8v19.3h13.3v-2.5h0ZM224.1,27.4h-17.1v2.5h6.7v16.8h3.8v-16.8h6.7v-2.5h0ZM244.3,27.4h-3.8v11.7c0,1.3-.2,2.3-.6,3.1-.4.8-1,1.4-1.7,1.8-.8.4-1.7.6-2.7.6-1,0-1.8-.2-2.5-.6-.7-.4-1.3-1-1.7-1.8-.4-.8-.6-1.9-.6-3.1v-11.7h-3.8v11.5c0,1.4.2,2.7.6,3.7.4,1,1,1.9,1.7,2.5.8.6,1.6,1.1,2.7,1.4,1,.3,2.2.5,3.5.5,1.3,0,2.5-.2,3.6-.5,1.1-.3,2-.8,2.8-1.5.8-.7,1.4-1.5,1.8-2.5.4-1,.6-2.3.7-3.7v-11.4h0ZM260.1,37.5h0c.8-.2,1.6-.6,2.3-1,.7-.5,1.2-1,1.6-1.6.4-.6.6-1.4.6-2.2,0-.8-.2-1.5-.5-2.1-.3-.6-.8-1.2-1.5-1.6-.8-.5-1.7-.9-2.9-1.2-1.2-.2-2.6-.4-4.2-.4-.8,0-1.5,0-2.2,0-.7,0-1.4,0-2.1.1-.6,0-1.2.1-1.8.2v19h3.7v-8.2h2.3c.9,0,1.6.1,2.2.3.6.2,1.1.6,1.4,1.1.4.5.7,1.2.9,2.1.2.8.4,1.5.6,2.1.2.6.4,1.1.5,1.6.2.4.3.7.4.9h3.9c-.2-.2-.3-.6-.5-1.1-.2-.5-.4-1.1-.6-1.8-.2-.7-.5-1.5-.7-2.3-.3-1-.7-1.9-1.3-2.5s-1.3-1.1-2.2-1.4h0ZM253.2,36.4h0v-6.6c.2,0,.6,0,1-.1.4,0,1,0,1.6,0,.7,0,1.3,0,1.9.2.6.1,1.1.3,1.6.6.5.3.8.6,1.1,1,.3.4.4,1,.4,1.6,0,.7-.2,1.3-.6,1.8-.4.5-1,.9-1.7,1.2-.8.3-1.7.4-2.7.4h-2.5ZM286.5,27.4h-3.5v7.1c0,1,0,2,0,2.9,0,.9,0,1.8.1,2.7,0,.9.1,1.7.2,2.6h0c-.5-1-1.1-2.1-1.8-3.1-.7-1.1-1.4-2.2-2.2-3.2l-6.5-8.9h-4.1v19.3h3.5v-7.2c0-1.1,0-2.2,0-3.1,0-1,0-1.9,0-2.7s0-1.7-.2-2.5h.1c.6,1.1,1.2,2.2,1.9,3.3.7,1.1,1.4,2.2,2.2,3.2l6.5,9h3.8v-19.3h0ZM291.7,46.7h3.8v-19.3h-3.8v19.3h0ZM291.7,26.4h3l4.6-3.3h-4.3l-3.3,3.3h0ZM165.8,70.4h0c-.3.1-.7.2-1.2.3-.5,0-.9.2-1.5.2-.5,0-1,0-1.6,0-1.6,0-3-.3-4.2-.8-1.2-.5-2.1-1.3-2.7-2.4-.6-1-1-2.3-1-3.8,0-1.2.2-2.2.6-3.1.4-.9,1-1.6,1.7-2.2s1.6-1,2.5-1.3c1-.3,2-.4,3.2-.4.9,0,1.7,0,2.4.2.7.1,1.3.3,1.8.5l.8-2.3c-.2,0-.5-.2-1-.3-.4-.1-1-.2-1.7-.3-.7,0-1.5-.1-2.4-.1-1.3,0-2.5.1-3.7.4-1.2.3-2.2.7-3.2,1.2s-1.8,1.2-2.5,2c-.7.8-1.2,1.7-1.6,2.7-.4,1-.6,2.1-.6,3.4,0,1.5.3,2.8.8,3.9.5,1.1,1.3,2.1,2.2,2.9,1,.8,2.1,1.4,3.5,1.8,1.3.4,2.8.6,4.5.6.9,0,1.6,0,2.4-.1.7,0,1.3-.2,1.9-.3.5-.1,1-.2,1.3-.4l-.6-2.2h0ZM182.8,70.8h-9.3v-6.1h8.3v-2.3h-8.3v-5.3h8.7v-2.3h-12.3v18.3h12.8v-2.3h0ZM203.3,54.8h-3.3v6.8c0,1,0,1.9,0,2.8,0,.9,0,1.7.1,2.5,0,.8.1,1.6.2,2.5h0c-.5-1-1.1-2-1.7-3-.6-1-1.3-2-2.1-3.1l-6.2-8.5h-3.9v18.3h3.3v-6.9c0-1.1,0-2.1,0-3,0-.9,0-1.8,0-2.6,0-.8,0-1.6-.1-2.4h.1c.5,1,1.2,2.1,1.8,3.1.7,1,1.4,2.1,2.1,3.1l6.2,8.6h3.6v-18.3h0ZM222.2,54.8h-16.3v2.4h6.3v16h3.6v-16h6.4v-2.4h0ZM235,64.4h0c.8-.2,1.5-.6,2.2-1,.6-.4,1.1-.9,1.5-1.6.4-.6.6-1.3.6-2.1,0-.7-.2-1.4-.5-2-.3-.6-.8-1.1-1.4-1.6-.7-.5-1.7-.9-2.8-1.1-1.1-.2-2.4-.3-4-.3-.7,0-1.4,0-2.1,0-.7,0-1.3,0-2,.1-.6,0-1.2.1-1.7.2v18.1h3.5v-7.8h2.2c.8,0,1.5.1,2.1.3.6.2,1,.6,1.4,1.1.3.5.6,1.1.8,2,.2.8.4,1.4.6,2,.2.6.3,1.1.5,1.5.2.4.3.7.4.9h3.7c-.2-.2-.3-.6-.5-1.1-.2-.5-.4-1-.6-1.7-.2-.7-.4-1.4-.7-2.2-.3-1-.7-1.8-1.2-2.4-.5-.6-1.2-1.1-2.1-1.3h0ZM228.4,63.3h0v-6.3c.2,0,.5,0,1-.1.4,0,.9,0,1.5,0,.6,0,1.2,0,1.8.2.6.1,1.1.3,1.5.5.4.2.8.6,1,1,.2.4.4.9.4,1.5,0,.7-.2,1.2-.6,1.7-.4.5-.9.9-1.7,1.1-.7.3-1.6.4-2.6.4h-2.4ZM259.8,54.8h-3.6v11.1c0,1.2-.2,2.2-.6,3-.4.8-.9,1.3-1.7,1.7-.7.4-1.6.6-2.6.5-.9,0-1.7-.2-2.4-.5-.7-.4-1.2-.9-1.6-1.7-.4-.8-.6-1.8-.6-3v-11.1h-3.6v10.9c0,1.4.2,2.5.6,3.5.4,1,.9,1.8,1.7,2.4.7.6,1.6,1.1,2.6,1.4,1,.3,2.1.4,3.3.4,1.3,0,2.4-.1,3.4-.4,1-.3,1.9-.8,2.7-1.4.8-.6,1.3-1.4,1.7-2.4.4-1,.6-2.2.6-3.5v-10.9h0ZM285.8,54.8h-4.5l-3.4,8c-.5,1.1-.9,2.2-1.3,3.3-.4,1-.7,2.1-1,3h0c-.3-1-.6-2-1-3.1-.4-1-.7-2.1-1.2-3.2l-3.3-8.1h-4.4l-1.6,18.3h3.3l.5-7.6c0-.9.1-1.7.2-2.6,0-.9.1-1.8.2-2.6,0-.9,0-1.7,0-2.4h0c.3,1.1.6,2.2,1,3.4.4,1.2.8,2.4,1.3,3.6l3.2,8.1h2.7l3.5-8.3c.5-1.2,1-2.3,1.4-3.5.4-1.1.8-2.3,1.2-3.3h0c0,.8,0,1.6,0,2.4,0,.9,0,1.7.1,2.6,0,.9.1,1.7.2,2.6l.5,7.7h3.5l-1.4-18.3h0ZM156.7,81.1h-1.3l-1,.9h0l-1-.9h-1.4l1.7,1.5h1.4l1.7-1.5h0ZM157.4,83.4h0c-.1,0-.3-.1-.5-.2-.2,0-.5-.1-.8-.1-.3,0-.7,0-1.1,0-.6,0-1.3,0-1.8.2-.6.1-1.1.3-1.6.6-.5.3-.9.6-1.2,1-.3.4-.6.8-.8,1.3-.2.5-.3,1.1-.3,1.7,0,.7.1,1.4.4,1.9.3.6.6,1,1.1,1.4.5.4,1,.7,1.7.9.7.2,1.4.3,2.2.3.4,0,.8,0,1.2,0,.4,0,.7,0,.9-.1.3,0,.5-.1.6-.2l-.3-1.1c-.2,0-.4.1-.6.2-.2,0-.5,0-.7.1-.3,0-.5,0-.8,0-.8,0-1.5-.1-2.1-.4-.6-.3-1-.7-1.3-1.2-.3-.5-.5-1.1-.5-1.9,0-.6.1-1.1.3-1.5.2-.4.5-.8.8-1.1.4-.3.8-.5,1.2-.7.5-.1,1-.2,1.6-.2.4,0,.8,0,1.1,0,.3,0,.6.1.9.2l.4-1.1h0ZM165.5,91.1h-4.6v-3h4.1v-1.1h-4.1v-2.6h4.3v-1.1h-6.1v9h6.3v-1.1h0ZM173.1,83.4h0c-.2,0-.4-.1-.6-.2-.2,0-.5-.1-.8-.2-.3,0-.6,0-1,0-.6,0-1.1,0-1.6.2-.5.1-.9.3-1.2.5-.3.2-.6.5-.8.8-.2.3-.3.6-.3,1,0,.4.1.8.4,1.1.2.3.6.6,1,.9.4.2.9.5,1.5.6.5.1.8.3,1.1.5.3.2.5.3.6.5.1.2.2.4.2.7,0,.3,0,.5-.3.7-.2.2-.4.4-.7.5-.3.1-.7.2-1.2.2-.3,0-.6,0-.9,0-.3,0-.6-.1-.9-.2-.3,0-.5-.2-.7-.3l-.4,1.1c.2.1.4.2.7.3.3,0,.6.1,1,.2.4,0,.7,0,1.1,0,.7,0,1.2,0,1.7-.2s.9-.3,1.3-.6.6-.5.8-.8c.2-.3.3-.7.3-1.1s0-.8-.3-1.1c-.2-.3-.5-.6-.9-.9-.4-.3-.9-.5-1.5-.7-.5-.2-.9-.3-1.2-.5-.3-.2-.5-.3-.7-.5-.1-.2-.2-.4-.2-.7s0-.3.1-.4c0-.1.2-.3.3-.4.2-.1.4-.2.6-.3s.5-.1.9-.1c.3,0,.6,0,.9,0,.3,0,.5,0,.7.2.2,0,.4.1.5.2l.4-1.1h0ZM179.4,87h0l3.8-3.9h-2.1l-3,3.2c-.1.2-.3.3-.4.5-.1.2-.3.3-.4.5h0v-4.2h-1.7v9h1.7v-3.3l1-.9,3.2,4.3h2.1l-4-5.2h0ZM189.5,83.2h-2.2l-3.6,9h1.8l1-2.7h3.6l1,2.7h1.9l-3.6-9h0ZM186.8,88.5h0l.9-2.4c0-.2.1-.4.2-.6,0-.2.1-.4.2-.6,0-.2.1-.4.2-.6h0c0,.3.2.6.3.9,0,.3.2.6.3.9l.9,2.4h-3ZM187.5,82.7h1.4l2.2-1.6h-2l-1.6,1.6h0ZM205,83.2h-8v1.2h3.1v7.9h1.8v-7.9h3.1v-1.2h0ZM211.9,81.1h-1.3l-1,.9h0l-1-.9h-1.4l1.7,1.5h1.4l1.7-1.5h0ZM208,92.2h0v-3.8h1.1c.4,0,.7,0,1,.2.3.1.5.3.7.5.2.2.3.6.4,1,.1.4.2.7.3,1,0,.3.2.5.3.7,0,.2.1.3.2.4h1.8c0-.1-.1-.3-.2-.5,0-.2-.2-.5-.3-.8-.1-.3-.2-.7-.3-1.1-.1-.5-.3-.9-.6-1.2-.3-.3-.6-.5-1-.6h0c.3-.1.6-.2.8-.4.3-.1.5-.3.7-.5.2-.2.3-.4.4-.6.1-.2.2-.5.2-.8,0-.4,0-.7-.2-1-.2-.3-.4-.6-.7-.8-.4-.3-.8-.4-1.4-.5-.5-.1-1.2-.2-2-.2-.3,0-.7,0-1,0-.3,0-.7,0-1,0-.3,0-.6,0-.8,0v8.9h1.7ZM208,84.2h0c.1,0,.3,0,.5,0,.2,0,.5,0,.8,0,.5,0,.9,0,1.2.2.3.1.6.3.8.5.2.2.3.5.3.9,0,.3-.1.6-.3.9-.2.2-.5.4-.8.6-.4.1-.8.2-1.2.2h-1.2v-3.1h0ZM221.6,91.1h-4.6v-3h4.1v-1.1h-4.1v-2.6h4.3v-1.1h-6.1v9h6.3v-1.1h0ZM228.4,87.3h0c.4-.1.8-.3,1-.5.3-.2.5-.4.7-.7.1-.3.2-.5.2-.8,0-.2,0-.4,0-.6,0-.2-.2-.4-.3-.6-.2-.2-.4-.4-.7-.5-.3-.2-.7-.3-1.2-.4-.5,0-1.1-.1-1.8-.1-.3,0-.7,0-1,0-.3,0-.6,0-.9,0-.3,0-.5,0-.8,0v8.9c.3,0,.6,0,1,0,.4,0,.8,0,1.4,0,1,0,1.8,0,2.4-.2.7-.1,1.2-.4,1.6-.6.1,0,.2-.2.3-.3.1-.1.2-.2.3-.4.1-.1.2-.3.2-.5,0-.2,0-.4,0-.6,0-.3,0-.6-.2-.9-.1-.3-.3-.5-.5-.7-.2-.2-.5-.3-.7-.5-.3-.1-.6-.2-.9-.3h0ZM225.2,86.9h0v-2.7c.1,0,.2,0,.4,0,.2,0,.4,0,.7,0,.3,0,.5,0,.8,0,.3,0,.5.1.7.2.2.1.4.2.5.4.1.2.2.4.2.7,0,.3,0,.5-.3.7-.2.2-.4.4-.8.5-.3.1-.7.2-1.2.2h-1.1ZM225.2,88h1c.3,0,.7,0,1,0,.3,0,.6.2.9.3.3.1.5.3.6.5.1.2.2.5.2.8,0,.3,0,.6-.2.8-.1.2-.3.4-.6.5-.2.1-.5.2-.8.3-.3,0-.7,0-1,0s-.4,0-.6,0c-.2,0-.3,0-.5,0v-3.2h0ZM237,83h0c-.7,0-1.4.1-2,.3-.6.2-1.1.5-1.6,1-.4.4-.8.9-1,1.5-.2.6-.4,1.2-.4,1.9,0,.7.1,1.3.3,1.9.2.6.6,1,1,1.5.4.4.9.7,1.5.9.6.2,1.3.3,2,.3.7,0,1.4-.1,2-.3.6-.2,1.1-.5,1.6-.9.5-.4.8-.9,1.1-1.5.3-.6.4-1.3.4-2.1,0-.5,0-1-.2-1.5-.1-.5-.3-.9-.6-1.3-.3-.4-.6-.7-1-1-.4-.3-.8-.5-1.4-.6-.5-.1-1.1-.2-1.7-.2h0ZM236.9,84.1h0c.4,0,.8,0,1.1.2.3.1.6.3.9.5.2.2.4.5.6.8.2.3.3.6.4,1,0,.3.1.7.1,1s0,.8-.1,1.1c0,.4-.2.7-.4,1-.2.3-.4.6-.6.8-.2.2-.5.4-.9.5-.3.1-.7.2-1.1.2-.4,0-.8,0-1.1-.2-.3-.1-.6-.3-.9-.5-.2-.2-.5-.5-.6-.8-.2-.3-.3-.6-.4-1,0-.3-.1-.7-.1-1.1s0-.7.1-1.1c0-.3.2-.7.4-1,.2-.3.4-.6.6-.8.2-.2.5-.4.9-.5.3-.1.7-.2,1.1-.2h0ZM249.9,83.2h0l-1.6,4.3c-.2.6-.4,1.1-.6,1.7-.2.6-.4,1.1-.5,1.7h0c-.1-.5-.3-1.1-.5-1.7-.2-.6-.4-1.1-.6-1.7l-1.5-4.2h-1.9l3.5,9h2l3.8-9h-1.9ZM257.6,83.2h-2.2l-3.6,9h1.8l1-2.7h3.6l1,2.7h1.9l-3.6-9h0ZM255,88.5h0l.9-2.4c0-.2.1-.4.2-.6,0-.2.1-.4.2-.6,0-.2.1-.4.2-.6h0c0,.3.2.6.3.9,0,.3.2.6.3.9l.9,2.4h-3ZM255.7,82.7h1.4l2.2-1.6h-2l-1.6,1.6Z" fill="#1a1a18" fill-rule="evenodd"/>
      </g>
    </g>
  </g>
</svg>