<?xml version="1.0" encoding="UTF-8"?>
<svg xmlns="http://www.w3.org/2000/svg" version="1.1" viewBox="0 0 460.2 251.6">
  <!-- Generator: Adobe Illustrator 28.6.0, SVG Export Plug-In . SVG Version: 1.2.0 Build 709)  -->
  <g>
    <g id="Layer_1">
      <g>
        <polygon points="419.5 169.3 389 169.3 389 62.4 419.5 62.4 419.5 169.3 419.5 169.3" fill="red" fill-rule="evenodd"/>
        <polygon points="372.6 169.3 342.1 169.3 342.1 62.4 372.6 62.4 372.6 169.3 372.6 169.3" fill="red" fill-rule="evenodd"/>
        <polygon points="239.3 116.5 238.8 116.4 238.4 116.3 237.9 116.2 237.4 116.1 237 116.1 236.5 116 236.1 115.9 235.7 115.8 235.3 115.8 234.8 115.8 234.4 115.7 233.9 115.7 233.4 115.7 232.9 115.7 232.4 115.6 231.9 115.6 231.2 115.7 230.4 115.7 229.7 115.8 229 115.9 228.3 116 227.6 116.2 226.9 116.4 226.3 116.7 225.7 116.9 225.1 117.2 224.5 117.5 223.9 117.9 223.4 118.3 222.8 118.7 222.3 119.2 221.8 119.7 221.4 120.2 221.1 120.7 220.7 121.3 220.4 121.9 220.1 122.5 219.8 123.2 219.5 123.9 219.3 124.7 219 125.5 218.8 126.2 218.7 127.1 218.5 127.9 218.4 128.8 218.3 129.7 218.3 130.6 218.3 131.5 218.3 169.6 187.6 169.6 187.6 89.9 214.1 89.9 214.1 105.4 214.5 104.3 214.9 103.3 215.3 102.3 215.7 101.4 216.1 100.5 216.5 99.6 217 98.7 217.4 97.9 217.9 97.1 218.4 96.3 218.8 95.6 219.3 94.9 219.8 94.3 220.3 93.6 220.9 93 221.4 92.5 221.7 92.2 222 92 222.2 91.7 222.5 91.5 223.2 91 223.8 90.6 224.5 90.2 225.2 89.8 226 89.5 226.8 89.2 227.6 89 228.4 88.8 229.3 88.6 230.2 88.4 231.2 88.3 232.2 88.2 233.2 88.2 234.2 88.2 236.9 88.2 239.3 88.4 239.3 116.5 239.3 116.5" fill="red" fill-rule="evenodd"/>
        <polygon points="172.3 169.6 141.6 169.6 141.6 89.9 172.3 89.9 172.3 169.6 172.3 169.6" fill="red" fill-rule="evenodd"/>
        <polygon points="172.3 82.3 141.6 82.3 141.6 61 172.3 61 172.3 82.3 172.3 82.3" fill="red" fill-rule="evenodd"/>
        <path d="M100.8,131.3v-2.4s0-1.2,0-1.2v-1.1s0-1.1,0-1.1v-1c0,0-.2-1-.2-1v-1c0,0-.2-1-.2-1v-.9c-.1,0-.3-.9-.3-.9l-.2-.9-.2-.9-.2-.9-.2-.9-.3-.9v-.4c-.1,0-.3-.4-.3-.4l-.2-.4-.2-.4-.2-.4-.2-.3-.2-.3-.2-.3-.2-.3-.2-.3-.2-.3-.3-.3-.3-.3-.3-.2-.3-.2-.3-.2-.3-.2-.3-.2-.3-.2-.3-.2-.3-.2h-.3c0-.1-.3-.3-.3-.3h-.4c0,0-.4-.2-.4-.2h-.4c0,0-.4-.2-.4-.2h-.4s-.4,0-.4,0h-.4s-.4,0-.4,0h-.5s-.3,0-.3,0h-.3s-.3,0-.3,0h-.3c0,0-.3.2-.3.2h-.3c0,0-.3.2-.3.2h-.3c0,.1-.3.3-.3.3l-.3.2-.3.2-.3.2-.3.3-.3.3-.3.3-.3.3-.3.3-.2.3-.2.3-.2.3-.2.3-.2.3-.2.3v.3c-.1,0-.3.3-.3.3v.3c0,0-.2.3-.2.3v.3c0,0-.1.3-.1.3v.3s0,.3,0,.3v.3s0,24.5,0,24.5v.6s0,.6,0,.6v.6s0,.6,0,.6v.6c0,0,.1.5.1.5v.5c0,0,.2.5.2.5v.5c0,0,.2.5.2.5v.4c.1,0,.3.4.3.4l.2.4.2.4.2.4.2.4.2.3.2.3.2.3.2.3.3.3.3.3.3.3.3.2.3.2.3.2.3.2.3.2h.3c0,.1.3.3.3.3h.4c0,.1.4.2.4.2h.3c0,0,.3.1.3.1h.3s.3,0,.3,0h.3s.3,0,.3,0h.3s.3-.1.3-.1h.6c0-.1.6-.3.6-.3l.6-.2.6-.2.6-.3.5-.3.5-.3.5-.4.5-.4.4-.4.4-.5.4-.5.4-.5.4-.6.3-.6.3-.6.3-.6.3-.7.3-.7.3-.7.2-.8.2-.8.2-.9.2-.9v-.9c.1,0,.3-.9.3-.9v-.9c0,0,.2-1,.2-1v-1c0,0,.1-1.1.1-1.1v-1.1s0-1.1,0-1.1h0ZM132.5,128.4v3.5c0,0-.1,1.7-.1,1.7v1.6c-.1,0-.3,1.6-.3,1.6l-.2,1.6-.2,1.5-.3,1.5-.3,1.5-.3,1.4-.3,1.4-.4,1.4-.4,1.3-.4,1.3-.5,1.2-.5,1.2-.6,1.2-.6,1.1-.6,1.1-.6,1-.6,1-.6,1-.7.9-.7.9-.7.9-.7.8-.8.8-.8.8-.8.7-.8.7-.9.6-.9.6-.9.5-.9.5-.9.5-.9.4-.9.4-.9.4-.9.3-.9.3-.9.3-.9.2-1,.2-.9.2h-1c0,.1-1,.2-1,.2h-1c0,0-1,0-1,0h-1.5s-.7,0-.7,0h-.7c0,0-.7-.2-.7-.2h-.7c0-.1-.7-.2-.7-.2h-.7c0-.1-.7-.3-.7-.3l-.7-.2-.7-.2-.7-.2-.7-.3-.6-.3-.6-.3-.6-.3-.6-.3-.6-.3-.6-.4-.6-.4-.6-.4-.6-.4-.6-.4-.6-.5-.6-.5-.6-.5-.6-.5-.5-.5-.5-.6-.5-.6-.5-.6-.5-.6v33.5h-30.9v-104.6h28.6v11.3l.2-.7.2-.7.3-.7.3-.6.4-.6.4-.6.5-.6.5-.6.5-.6.6-.6.6-.6.6-.6.7-.5.7-.5.7-.5.8-.5.8-.5.8-.4.8-.4.8-.4.9-.3.9-.3.9-.3.9-.3.9-.2.9-.2.9-.2h.9c0-.1.9-.2.9-.2h.9c0,0,.9-.1.9-.1h1s.8,0,.8,0h.8s.8,0,.8,0h.8c0,0,.8.2.8.2h.8c0,0,.7.2.7.2h.7c0,.1.7.3.7.3l.7.2.7.2.7.2.7.2.7.3.7.3.7.3.7.3.7.3.6.4.7.4.6.4.6.4.6.4.6.5.6.5.6.5.6.5.6.5.6.6.6.6.6.6.6.6.6.6.6.7.5.7.5.7.5.7.5.7.4.8.4.8.4.8.4.8.4.9.4.9.3.9.3.9.3.9.3.9.3,1,.3,1,.2,1,.2,1,.2,1,.2,1.1.2,1.1.2,1.1v1.2c.1,0,.2,1.2.2,1.2v1.2c.1,0,.2,1.2.2,1.2v1.2c0,0,.1,1.2.1,1.2v1.3s0,1.3,0,1.3h0Z" fill="red" fill-rule="evenodd"/>
        <path d="M301.4,120.4v-.6s0-.7,0-.7v-.6c0,0-.1-.7-.1-.7v-.6c-.1,0-.3-.6-.3-.6l-.2-.6-.2-.6-.2-.6-.3-.6-.3-.6-.3-.6-.3-.6-.3-.5-.3-.5-.4-.5-.4-.5-.4-.5-.4-.4-.5-.4-.5-.4-.5-.4-.6-.3-.6-.3-.6-.3-.6-.2-.6-.2-.6-.2h-.6c0-.1-.7-.2-.7-.2h-.7s-.7,0-.7,0h-.7s-.7,0-.7,0h-.7c0,.1-.6.2-.6.2l-.6.2-.6.2-.6.2-.6.3-.6.3-.6.3-.5.4-.5.4-.5.4-.4.4-.4.5-.4.5-.4.5-.4.5-.3.5-.3.6-.3.6-.3.6-.3.6-.2.6-.2.6-.2.6v.6c-.1,0-.3.6-.3.6v.7c0,0-.1.6-.1.6v.7s0,.6,0,.6h24.4ZM329.9,141.4v.9s0,.9,0,.9v.9c0,0-.3.9-.3.9l-.2.9-.2.9-.3.9-.3.9-.3.8-.3.8-.4.8-.4.8-.4.8-.5.8-.5.8-.5.7-.6.7-.6.7-.6.7-.6.7-.6.7-.6.6-.7.6-.7.6-.7.6-.7.6-.7.6-.7.6-.7.5-.8.5-.8.5-.8.5-.7.4-.7.4-.7.4-.8.4-.8.3-.8.3-.8.3-.8.3-.8.3-.8.3-.8.3-.9.3-.9.3-.9.2-.9.2-.9.2-.9.2-.9.2-.9.2-.9.2h-.9c0,.1-.9.3-.9.3h-.9c0,.1-.9.2-.9.2h-.9c0,0-.9.2-.9.2h-.9c0,0-.9.1-.9.1h-.9s-1,0-1,0h-.9s-1,0-1,0h-2s-1,0-1,0h-1c0,0-1-.1-1-.1h-1c0-.1-1-.2-1-.2h-1c0-.1-.9-.3-.9-.3l-.9-.2-.9-.2-.9-.2-.9-.3-.9-.3-.9-.3-.9-.3-.9-.3-.9-.3-.9-.3-.9-.4-.9-.4-.9-.4-.9-.4-.8-.5-.8-.5-.8-.5-.8-.5-.8-.5-.8-.5-.8-.6-.8-.6-.8-.6-.6-.5-.6-.5-.6-.5-.6-.5-.6-.5-.5-.5-.5-.5-.5-.6-.5-.5-.5-.6-.5-.6-.5-.6-.4-.6-.4-.6-.4-.6-.4-.6-.4-.6-.4-.7-.4-.7-.4-.7-.3-.7-.3-.7-.3-.7-.3-.7-.3-.7-.3-.8-.3-.8-.3-.8-.3-.8-.2-.8-.2-.8-.2-.8-.2-.9-.2-.9-.2-.9v-.9c-.1,0-.3-.9-.3-.9v-.9c0,0-.1-.9-.1-.9v-.9s0-.9,0-.9v-1.8s0-.9,0-.9v-.9s.1-.9.1-.9v-1c0,0,.2-1,.2-1v-.9c.1,0,.2-1,.2-1l.2-1,.2-1,.2-1,.2-1,.3-1,.3-1.1.3-1.1.3-1,.3-1,.4-1,.4-1,.4-1,.4-.9.5-.9.5-.9.5-.9.6-.9.6-.9.6-.9.7-.9.7-.9.7-.9.7-.9.7-.8.8-.8.8-.8.8-.8.8-.7.9-.7.9-.7.9-.7.9-.7.9-.6,1-.6,1-.6,1-.6,1-.6,1.1-.5,1.1-.5,1.1-.5,1.1-.4,1.1-.4,1.1-.4,1.2-.3,1.2-.3,1.2-.3,1.2-.3,1.2-.2,1.2-.2h1.2c0-.1,1.2-.3,1.2-.3h1.2c0,0,1.2-.1,1.2-.1h3.9s1.3.1,1.3.1h1.3c0,0,1.3.2,1.3.2h1.2c0,.1,1.2.3,1.2.3l1.2.2,1.2.2,1.2.3,1.2.3,1.1.3,1.1.3,1.1.3,1.1.4,1,.4,1,.4,1,.5,1,.5.9.5.9.5.9.6.9.6.9.6.9.6.8.7.8.7.8.7.8.8.7.8.7.8.7.8.6.8.6.9.6.9.6.9.6.9.5.9.5.9.5.9.5.9.4,1,.4,1,.4,1,.4,1,.3,1,.3,1,.3,1,.3,1.1.3,1.1.3,1.1.2,1.1.2,1.2.2,1.2.2,1.2.2,1.2v1.2c.1,0,.3,1.2.3,1.2v1.3c.1,0,.2,1.3.2,1.3v1.3c0,0,.1,1.3.1,1.3v1.3s0,1.4,0,1.4h-52.9v.9s0,.9,0,.9v.9s.1.8.1.8v.8c0,0,.2.7.2.7l.2.7.2.6.2.6.2.6.3.6.3.6.3.6.4.5.4.5.4.5.4.4.5.4.5.4.5.4.5.3.5.3.6.3.6.3.6.3.6.2.6.2.6.2h.6c0,.1.7.3.7.3h.7c0,0,.7.2.7.2h.5s.5,0,.5,0h.5s.5-.1.5-.1h.5c0,0,.5-.2.5-.2h.5c0-.1.5-.3.5-.3l.5-.2.5-.2.5-.2.5-.2.5-.2.5-.3.4-.3.5-.3.4-.3.4-.3.4-.3.4-.4.4-.4.3-.4.3-.4.3-.4.3-.5.2-.5.2-.5.2-.5v-.5c.1,0,.3-.5.3-.5v-.5c0,0,.1-.6.1-.6h28.4Z" fill="red" fill-rule="evenodd"/>
      </g>
    </g>
  </g>
</svg>