<?xml version="1.0" encoding="utf-8"?>
<!-- Generator: Adobe Illustrator 28.2.0, SVG Export Plug-In . SVG Version: 6.00 Build 0)  -->
<svg version="1.1" id="Vrstva_1" xmlns="http://www.w3.org/2000/svg" xmlns:xlink="http://www.w3.org/1999/xlink" x="0px" y="0px"
	 viewBox="0 0 1005 1005" style="enable-background:new 0 0 1005 1005;" xml:space="preserve">
<style type="text/css">
	.st0{fill:#12100B;}
	.st1{fill:#FFFFFF;}
	.st2{fill-rule:evenodd;clip-rule:evenodd;fill:#C71517;}
	.st3{fill-rule:evenodd;clip-rule:evenodd;}
	.st4{fill-rule:evenodd;clip-rule:evenodd;fill:#FDC603;}
	.st5{fill:none;}
	.st6{fill:#089639;}
	.st7{fill:#293276;}
	.st8{fill-rule:evenodd;clip-rule:evenodd;fill:#FFFFFF;}
	.st9{fill:#6A6867;}
	.st10{fill:#CB6127;}
</style>
<g>
	<g id="layer3_00000075877965713302676290000003689604300124375219_" transform="translate(-71.0545,-49.974741)">
		<path id="path2959_00000134961637860251947980000011336482417702620347_" class="st1" d="M242.6,165.7l1.4,471.9
			c0,189.2,154,301.6,330.5,301.6c182.3,0,330.2-120.3,330.2-301.6L904,165.7H242.6z"/>
		<path id="path3903_00000132767677854693811440000001807602803766730407_" class="st2" d="M595.2,295.5c18.5,3.8,35.1,1,53-7.5
			l15.1-59.1l19.2,10C662,350.8,613.3,429.1,582.2,475.4c-31.1,46.2-77.9,114.6-110.4,142.8C525.3,515.3,567.6,408.9,595.2,295.5z"
			/>
		<path id="path3905_00000139999223305363200700000000216358348801645962_" class="st3" d="M475.3,873.2c0,0,59.5,27.8,111.1,28.6
			c51.6,0.8,95.3-25.4,95.3-25.4s-5.6-267.5-100-265.2C487.2,613.6,475.3,873.2,475.3,873.2z"/>
		<g id="g3539_00000089552586163903479270000013347075524024512694_" transform="translate(27.25361,1118.7061)">
			<path id="path9499_00000088097436172000137910000003822868791028483466_" class="st4" d="M549.3-247.4
				c-5.3-37.4-54-22.3-44.7-81.7c3.7-15.8,21-39.8-8.9-52.1c10.1-3.9,22.8-2.3,28.8,16.9c25.7-25.7,26.6-38.3,10.9-58.6
				c18.6-1.8,41.3,13.5,32.9,41.9c5-4.1,17.8,8.5,17,25.8c18.9,25.1,16.5,38.4,0.3,60.9C580.3-284.8,553.2-272,549.3-247.4z"/>
			<path id="path10386_00000075874133451523012320000012667762626817039241_" class="st5" d="M524.8-365.2
				c-12.2,18.3-4.2,26.8-4.1,28.1"/>
			<path id="path10388_00000012434293011156400850000006689873553610278839_" class="st5" d="M547.3-373.8c-1.9,11-5.8,16-11.8,25.6
				c-14.3,21,9.1,38.3,9.2,50.1v-1"/>
			<path id="path10390_00000104674800012906472180000001490926326289015699_" class="st5" d="M556-343.2c-1.7-23.5,9-24.7,13.3-40.4
				"/>
			<path id="path10392_00000162338460159018292160000015514795230414192044_" class="st5" d="M585.2-355.4
				c1.6,18.6-13.9,22.4-18.4,47.6"/>
		</g>
		<path id="sense-2_00000096034452473462464080000005822609191879474330_" class="st2" d="M554.3,297.1c-18.5,3.8-35.1,1-53-7.5
			l-15.1-59.1l-19.2,10c20.6,111.8,69.2,190.2,100.4,236.4c31.1,46.2,77.9,114.6,110.4,142.8C624.2,516.9,582,410.5,554.3,297.1z"/>
		<path id="path3234_00000116214018446637977390000007152670105102535808_" class="st6" d="M461,165.7H242.6l0,0l1.4,471.9
			c0,146.9,92.8,247.6,217,285.2l1.6-4.3L461,165.7z"/>
		<path id="path3239_00000071533716666651795510000013810514290310301352_" class="st7" d="M692.8,921
			C816.7,881,904.6,777.4,904.6,637.6L904,165.7H692.8L692.8,921z"/>
		<g id="g3341_00000004523337553127795210000008604009358075389317_" transform="translate(-18.93635,-6.1506199)">
			
				<rect id="rect2250_00000064330883998818895910000006577267689763408039_" x="811.6" y="640.6" class="st8" width="5" height="150.7"/>
			<path id="path2248_00000088816791853882733310000014824753028569321889_" class="st8" d="M813.9,579.8c-2.9,0-8.6,16.2-9.1,43.9
				c-27.4-19.1-46.1-27.7-48.1-26.3c-2,1.4,11.5,15,38,34.5c-39.7,0.3-65,4.2-65,6.3c0,2.1,26,4.3,66.4,4.6
				c-28.2,20.6-43.3,37.1-41.2,38.6c2.1,1.5,21.6-6.5,49.9-26.2c0.4,28.7,6.2,44.7,9.2,44.7c3,0,9.3-17.6,9.8-46.7
				c29.3,20.6,49.6,30.7,51.7,29.2c2.1-1.5-8-15.1-36.9-36.1c39.5-0.3,59-6,59-8c0-2.1-20.5-5.5-59.3-5.9
				c27.2-20,37.4-34.4,35.4-35.9c-2.1-1.5-21.9,7.1-50.4,27.1C822.5,595.5,816.8,579.8,813.9,579.8z"/>
			
				<rect id="rect2231_00000101783666192409142010000011385219668616756914_" x="811.6" y="462.8" class="st8" width="5.5" height="176.9"/>
			<path id="path2240_00000002355442749033010500000004999765626800798892_" class="st8" d="M814.3,410.2c-2.7,0-5,17.9-5.5,41.6
				c-25.9-16.3-45-28.9-48.7-26.5c-3.5,2.3,15.7,14.6,40.7,31.4c-37.6,0.3-66.3,0.4-66.3,3.6c0,3.3,29.4,3.3,67.7,3.6
				c-26.7,17.7-47.5,31.1-43.8,33.4c3.8,2.3,23.7-10.7,50.4-27.6c0.4,24.6,0.2,43.4,5.5,43.4c5,0,5.1-19.1,5.5-44
				c27.7,17.6,48.8,31.6,52.6,29c4.3-3-17.7-16.2-45-34.2c37.4-0.3,66,1.7,66-3.6c0-5-27.9-3.2-64.6-3.5
				c25.7-17.1,46.1-29.3,42-32.2c-4.3-2.9-24,10.9-50.9,27.9C819.3,428.5,817.1,410.2,814.3,410.2z"/>
			
				<rect id="rect2233_00000090296725447953075600000012110535365814165929_" x="813.3" y="310.3" class="st8" width="2.5" height="150.7"/>
			
				<rect id="rect3256_00000105402805797765609720000004065935604183899026_" x="788.6" y="309.7" transform="matrix(0.7047 -0.7095 0.7095 0.7047 -11.054 662.0825)" class="st8" width="2.5" height="69.3"/>
			<path id="path2241_00000158003431275329917630000015975786567022377614_" class="st8" d="M814.9,280.2
				c-3.2-2.7-11.3-8.7-11.4-18.1c-0.1-9.4,2.2-14,10.9-19.4c7.6,5,11.7,9.9,11.8,19.2C826.4,271.4,819.2,275.9,814.9,280.2z"/>
			<path id="path3212_00000079482487299754158590000000646896614039341220_" class="st8" d="M835.8,273.8c9.5,0.1,15.9,7.6,16,15.7
				c0.1,8.1-8.8,14.9-8.8,14.9s-3-11.2-7.9-15.6c-4.9-4.5-12.2-5.1-20.5-6.6C815.8,279.6,826.5,273.6,835.8,273.8z"/>
			<path id="path3214_00000146484369931008327430000005964640107974137778_" class="st8" d="M795.1,273.6c-9.5,0.1-15.9,7.6-16,15.7
				c-0.1,8.1,8.8,14.9,8.8,14.9s3-11.2,7.9-15.6c4.9-4.5,12.2-5.1,20.5-6.6C815.1,279.4,804.5,273.5,795.1,273.6z"/>
			<path id="path3216_00000139271057940207536200000015297755435608114600_" class="st8" d="M815,279c-3.2,2.7-11.3,8.7-11.4,18.1
				c-0.1,9.4,2.2,14,10.9,19.4c7.6-5,11.7-9.9,11.8-19.2C826.5,287.8,819.4,283.3,815,279z"/>
			<path id="path2238_00000150808997789044210710000012603849841431221123_" class="st4" d="M822.6,279.7c0,4.3-3.5,7.9-7.9,7.9
				c-4.3,0-7.9-3.5-7.9-7.9c0-4.3,3.5-7.9,7.9-7.9C819.1,271.8,822.6,275.3,822.6,279.7z"/>
			<path id="path3260_00000066509698239331840960000006326971106615967149_" class="st8" d="M765.9,320.1c0.4-4.2,1.7-14.1-4.9-20.8
				c-6.6-6.7-11.5-8.3-21.5-5.9c-1.8,9-1.2,15.2,5.4,21.9C751.5,322,759.8,320.1,765.9,320.1z"/>
			<path id="path3262_00000102529146825319571000000008642799263266641058_" class="st8" d="M746.6,330.4
				c-6.6,6.8-5.7,16.6-0.1,22.4c5.6,5.8,16.8,4.2,16.8,4.2s-5.8-10-5.5-16.5c0.3-6.7,5-12.2,9.7-19.2
				C764.8,320.3,753.1,323.7,746.6,330.4z"/>
			<path id="path3264_00000083088353773282025670000002724587067412545967_" class="st8" d="M775.2,301.4c6.8-6.6,16.6-5.9,22.4-0.3
				c5.8,5.6,4.3,16.8,4.3,16.8s-10-5.7-16.6-5.4c-6.7,0.3-12.2,5.1-19.1,9.9C765.2,319.7,768.5,307.9,775.2,301.4z"/>
			<path id="path3266_00000129900417658721135350000010646518787080987565_" class="st8" d="M764.9,319.3c4.2-0.4,14.1-1.8,20.9,4.7
				c6.7,6.5,8.4,11.4,6,21.4c-8.9,1.9-15.2,1.4-22-5.2C763.1,333.7,764.9,325.4,764.9,319.3z"/>
			<path id="path3268_00000075841336148658393200000010666338642471207323_" class="st4" d="M760.1,325.2c3.1,3.1,8.1,3,11.1,0
				c3.1-3.1,3-8.1,0-11.1c-3.1-3.1-8.1-3-11.1,0C757,317.2,757,322.1,760.1,325.2z"/>
			<path id="path3225_00000072264691858889866130000013037466125807913885_" class="st8" d="M814.6,368.3c0,0-2.5,7.2-8.9,12.4
				s-16.9,8.4-16.9,8.4s3.9-10.5,10.4-15.7S814.6,368.3,814.6,368.3z"/>
			
				<rect id="rect3254_00000124843491076117477960000003919217210504536725_" x="805" y="343.6" transform="matrix(0.7095 -0.7047 0.7047 0.7095 0.8699 691.8737)" class="st8" width="69.3" height="2.5"/>
			<path id="path3227_00000002351091043319234570000011290111906285698176_" class="st8" d="M814.6,368.1c0,0,2.5,7.2,8.9,12.4
				s16.9,8.4,16.9,8.4s-3.9-10.5-10.4-15.7S814.6,368.1,814.6,368.1z"/>
			<path id="path3244_00000043433367692276811880000011350630808142577331_" class="st8" d="M863.6,320.7
				c-0.4-4.2-1.7-14.1,4.9-20.8c6.6-6.7,11.5-8.3,21.5-5.9c1.8,9,1.2,15.2-5.4,21.9C878,322.6,869.7,320.7,863.6,320.7z"/>
			<path id="path3246_00000014630604303346328790000016882036218315465880_" class="st8" d="M882.9,331c6.6,6.8,5.7,16.6,0.1,22.4
				c-5.6,5.8-16.8,4.2-16.8,4.2s5.8-10,5.5-16.5c-0.3-6.7-5-12.2-9.7-19.2C864.7,320.9,876.4,324.2,882.9,331z"/>
			<path id="path3248_00000120559004896442730740000006812196599808275858_" class="st8" d="M854.3,302c-6.8-6.6-16.6-5.9-22.4-0.3
				c-5.8,5.6-4.3,16.8-4.3,16.8s10-5.7,16.6-5.4c6.7,0.3,12.2,5.1,19.1,9.9C864.3,320.2,861,308.5,854.3,302z"/>
			<path id="path3250_00000137837425078004646930000013607706369559722126_" class="st8" d="M864.6,319.9
				c-4.2-0.4-14.1-1.8-20.9,4.7c-6.7,6.5-8.4,11.4-6,21.4c8.9,1.9,15.2,1.4,22-5.2C866.3,334.3,864.5,326,864.6,319.9z"/>
			<path id="path3252_00000083063630507197779970000004423472561886287779_" class="st4" d="M869.4,325.7c-3.1,3.1-8.1,3-11.1,0
				c-3.1-3.1-3-8.1,0-11.1c3.1-3.1,8.1-3,11.1,0C872.5,317.7,872.5,322.7,869.4,325.7z"/>
		</g>
		<g id="g3367_00000151536298660993784730000015271665087356190359_" transform="translate(-504.30233,-6.1506199)">
			
				<rect id="rect3369_00000029019456914009364790000005889521481972212890_" x="854.6" y="640.6" class="st8" width="5" height="150.7"/>
			<path id="path3371_00000145049700643889605970000009580756735059991689_" class="st8" d="M856.9,579.8c-2.9,0-8.6,16.2-9.1,43.9
				c-27.4-19.1-46.1-27.7-48.1-26.3c-2,1.4,11.5,15,38,34.5c-39.7,0.3-65,4.2-65,6.3c0,2.1,26,4.3,66.4,4.6
				c-28.2,20.6-43.3,37.1-41.2,38.6c2.1,1.5,21.6-6.5,49.9-26.2c0.4,28.7,6.2,44.7,9.2,44.7c3,0,9.3-17.6,9.8-46.7
				c29.3,20.6,49.6,30.7,51.7,29.2c2.1-1.5-8-15.1-36.9-36.1c39.5-0.3,59-6,59-8c0-2.1-20.5-5.5-59.3-5.9
				c27.2-20,37.4-34.4,35.4-35.9c-2.1-1.5-21.9,7.1-50.4,27.1C865.6,595.5,859.8,579.8,856.9,579.8z"/>
			
				<rect id="rect3373_00000000914295924735781450000007522585501237814690_" x="854.6" y="462.8" class="st8" width="5.5" height="176.9"/>
			<path id="path3375_00000124144776905003888450000004415134894663858357_" class="st8" d="M857.3,410.2c-2.7,0-5,17.9-5.5,41.6
				c-25.9-16.3-45-28.9-48.7-26.5c-3.5,2.3,15.7,14.6,40.7,31.4c-37.6,0.3-66.3,0.4-66.3,3.6c0,3.3,29.4,3.3,67.7,3.6
				c-26.7,17.7-47.5,31.1-43.8,33.4c3.8,2.3,23.7-10.7,50.4-27.6c0.4,24.6,0.2,43.4,5.5,43.4c5,0,5.1-19.1,5.5-44
				c27.7,17.6,48.8,31.6,52.6,29c4.3-3-17.7-16.2-45-34.2c37.4-0.3,66,1.7,66-3.6c0-5-27.9-3.2-64.6-3.5
				c25.7-17.1,46.1-29.3,42-32.2c-4.3-2.9-24,10.9-50.9,27.9C862.3,428.5,860.1,410.2,857.3,410.2z"/>
			
				<rect id="rect3377_00000161627986346039089830000008562227274352119947_" x="856.3" y="310.3" class="st8" width="2.5" height="150.7"/>
			
				<rect id="rect3379_00000046313020673426058700000008933231326587027613_" x="831.6" y="309.7" transform="matrix(0.7047 -0.7095 0.7095 0.7047 1.6484 692.601)" class="st8" width="2.5" height="69.3"/>
			<path id="path3381_00000132055345626441048590000004979316010363478684_" class="st8" d="M857.9,280.2
				c-3.2-2.7-11.3-8.7-11.4-18.1c-0.1-9.4,2.2-14,10.9-19.4c7.6,5,11.7,9.9,11.8,19.2C869.4,271.4,862.2,275.9,857.9,280.2z"/>
			<path id="path3383_00000024701402434761400420000014618267671115807377_" class="st8" d="M878.8,273.8c9.5,0.1,15.9,7.6,16,15.7
				c0.1,8.1-8.8,14.9-8.8,14.9s-3-11.2-7.9-15.6c-4.9-4.5-12.2-5.1-20.5-6.6C858.8,279.6,869.5,273.6,878.8,273.8z"/>
			<path id="path3385_00000012452603419271681550000002022990408521010353_" class="st8" d="M838.1,273.6c-9.5,0.1-15.9,7.6-16,15.7
				c-0.1,8.1,8.8,14.9,8.8,14.9s3-11.2,7.9-15.6c4.9-4.5,12.2-5.1,20.5-6.6C858.1,279.4,847.5,273.5,838.1,273.6z"/>
			<path id="path3387_00000029040851715212197790000015983979291564092318_" class="st8" d="M858.1,279c-3.2,2.7-11.3,8.7-11.4,18.1
				c-0.1,9.4,2.2,14,10.9,19.4c7.6-5,11.7-9.9,11.8-19.2C869.5,287.8,862.4,283.3,858.1,279z"/>
			<path id="path3389_00000160168431440235789090000001615984931944597917_" class="st4" d="M865.6,279.7c0,4.3-3.5,7.9-7.9,7.9
				c-4.3,0-7.9-3.5-7.9-7.9c0-4.3,3.5-7.9,7.9-7.9C862.1,271.8,865.6,275.3,865.6,279.7z"/>
			<path id="path3391_00000079481279041308827640000002698140010599956143_" class="st8" d="M808.9,320.1c0.4-4.2,1.7-14.1-4.9-20.8
				c-6.6-6.7-11.5-8.3-21.5-5.9c-1.8,9-1.2,15.2,5.4,21.9C794.5,322,802.8,320.1,808.9,320.1z"/>
			<path id="path3393_00000017481814725901525100000007664515148875758254_" class="st8" d="M789.6,330.4
				c-6.6,6.8-5.7,16.6-0.1,22.4c5.6,5.8,16.8,4.2,16.8,4.2s-5.8-10-5.5-16.5c0.3-6.7,5-12.2,9.7-19.2
				C807.8,320.3,796.1,323.7,789.6,330.4z"/>
			<path id="path3395_00000176004244189275695790000016281459820016112266_" class="st8" d="M818.2,301.4c6.8-6.6,16.6-5.9,22.4-0.3
				c5.8,5.6,4.3,16.8,4.3,16.8s-10-5.7-16.6-5.4c-6.7,0.3-12.2,5.1-19.1,9.9C808.2,319.7,811.5,307.9,818.2,301.4z"/>
			<path id="path3397_00000026871847910241902630000017838856634066838703_" class="st8" d="M807.9,319.3c4.2-0.4,14.1-1.8,20.9,4.7
				c6.7,6.5,8.4,11.4,6,21.4c-8.9,1.9-15.2,1.4-22-5.2C806.2,333.7,807.9,325.4,807.9,319.3z"/>
			<path id="path3399_00000080175806626638686910000009203874610280382629_" class="st4" d="M803.1,325.2c3.1,3.1,8.1,3,11.1,0
				c3.1-3.1,3-8.1,0-11.1c-3.1-3.1-8.1-3-11.1,0C800,317.2,800,322.1,803.1,325.2z"/>
			<path id="path3401_00000177472296933725649250000015639477867037812627_" class="st8" d="M857.6,368.3c0,0-2.5,7.2-8.9,12.4
				s-16.9,8.4-16.9,8.4s3.9-10.5,10.4-15.7S857.6,368.3,857.6,368.3z"/>
			
				<rect id="rect3403_00000048486019631406422560000009464906009449291933_" x="848" y="343.6" transform="matrix(0.7095 -0.7047 0.7047 0.7095 13.3642 722.1843)" class="st8" width="69.3" height="2.5"/>
			<path id="path3405_00000127733839064749124190000013277186659169936794_" class="st8" d="M857.6,368.1c0,0,2.5,7.2,8.9,12.4
				s16.9,8.4,16.9,8.4s-3.9-10.5-10.4-15.7S857.6,368.1,857.6,368.1z"/>
			<path id="path3407_00000119831475866456948770000015504687326830472127_" class="st8" d="M906.6,320.7
				c-0.4-4.2-1.7-14.1,4.9-20.8c6.6-6.7,11.5-8.3,21.5-5.9c1.8,9,1.2,15.2-5.4,21.9C921,322.6,912.7,320.7,906.6,320.7z"/>
			<path id="path3409_00000009550176507700202470000009532065269404041362_" class="st8" d="M925.9,331c6.6,6.8,5.7,16.6,0.1,22.4
				c-5.6,5.8-16.8,4.2-16.8,4.2s5.8-10,5.5-16.5c-0.3-6.7-5-12.2-9.7-19.2C907.7,320.9,919.4,324.2,925.9,331z"/>
			<path id="path3411_00000068662906098094171960000005216721723302941596_" class="st8" d="M897.3,302c-6.8-6.6-16.6-5.9-22.4-0.3
				c-5.8,5.6-4.3,16.8-4.3,16.8s10-5.7,16.6-5.4c6.7,0.3,12.2,5.1,19.1,9.9C907.3,320.2,904,308.5,897.3,302z"/>
			<path id="path3413_00000017486627072297824970000010971724695709725318_" class="st8" d="M907.6,319.9
				c-4.2-0.4-14.1-1.8-20.9,4.7c-6.7,6.5-8.4,11.4-6,21.4c8.9,1.9,15.2,1.4,22-5.2C909.4,334.3,907.6,326,907.6,319.9z"/>
			<path id="path3415_00000173145220593070780380000004454451295622193072_" class="st4" d="M912.4,325.7c-3.1,3.1-8.1,3-11.1,0
				c-3.1-3.1-3-8.1,0-11.1c3.1-3.1,8.1-3,11.1,0C915.5,317.7,915.5,322.7,912.4,325.7z"/>
		</g>
		<path id="path5010_00000105420100609233291090000012181784799896741270_" class="st5" d="M242.5,165.8l1.4,471.9
			c0,189.2,154,301.6,330.5,301.6c182.3,0,330.2-120.3,330.2-301.6l-0.7-471.9H242.5z"/>
	</g>
</g>
</svg>
