<?xml version="1.0" encoding="UTF-8"?>
<svg xmlns="http://www.w3.org/2000/svg" version="1.1" viewBox="0 0 841.9 595.3">
  <!-- Generator: Adobe Illustrator 28.6.0, SVG Export Plug-In . SVG Version: 1.2.0 Build 709)  -->
  <g>
    <g id="Vrstva_1">
      <g>
        <path d="M437.2,160.3h0c-.9,0-1.9.2-3.1.6-6.8,2.2-11.3,7.4-14.7,12.1-2.7,3.6-4.6,7.6-6.6,11.5-.6,1.2-1.2,2.5-1.9,3.7-3.6,7-10,11-17.4,11s-11.5-2.9-15.6-7c-12.1-12.3-38.2-21.8-55.7-20.9-5,.3-10.2.4-15.2,1.1-11.8,1.7-36.5,1.1-64.9,27.1-9.2,8.5-13.9,19.6-18.9,32.8-3.1,8.1-5,16.7-6.9,24.9-.5,2.1-7.2,33.6-7.6,35-2.4,8.3-5.6,17.6-14.4,23-5.9,3.6-12.6,5.4-20,5.5-3.1,0-8.9-.8-8.9-.8,0,0,2.9,8.8,18.7,10.7h0c1.6.2,3.2.2,4.7.2,15.6,0,26.7-8.2,33.1-24.3,4.3-11,6.8-22.6,9.3-33.8.7-3.1,5.8-33,20.8-48.5,3.9-4,9.3-6.5,13-7.8-2.5,6.9.2,15.7,1.7,19.6.5,1.2,1,2.5,1.5,3.7,1,2.4,2,4.6,2.6,7,3,11.2-2.2,20.1-7.7,27.4-5.5,7.3-12.5,13.8-20.8,19.2-5.2,3.4-7.5,7.8-7.7,14.7-.2,6.1-2,18.4-2.8,24.5-.9,6.4-1.8,13-1.7,19.6,0,4.7,3.1,8.1,7.3,8.3,4.4.2,6.7-3.3,7.3-7.2,1.1-7.1,2.3-16.5,1.8-26-.5-7.7,1.9-12.1,9.2-16.5,12.9-7.8,24.6-17.8,36.5-28.2,11.6-10.1,20.9-20.8,28.6-32.7,1.1-1.6,2-3.3,2.9-5,.2-.4.5-.8.7-1.2,8.5,1.5,15.6,2.1,22.1,2.1,10.6.2,21.3-2.9,22-3,.8,8-4.1,20.4-7,25.2-6.3,10.4,5.4,16.4,11.4,9.4,10.3-12.2,13.6-29.3,13.7-40,13-4.7,24.6-12.8,31.4-23.1,1.3-2,2.3-3.5,3.1-4.4.9-1.1,2.3-1.7,4.5-1.1,1.2.3,8.3,3.3,9.4,3.8,12.4,5.3,18.1,2.5,19.1-1,1.2-4.1-1.8-6.4-4.1-8-.7-.5-1.4-1-2-1.4-4.3-2.7-7.1-5.8-8.2-9.5-1.5-5.5-5.5-11.5-9-13.7,1.5-.9,1.8-1.2,2.8-2,3.4-2.6,6.3-6.3,7-9.8.5-2.5.3-4.3-.6-5.5-.5-.6-1.4-1.3-3-1.3h0Z" fill="#064"/>
        <path d="M526.6,322.1c0,11.7-9.5,21.2-21.2,21.2s-21.2-9.5-21.2-21.2,9.5-21.2,21.2-21.2,21.2,9.5,21.2,21.2Z" fill="#fd0"/>
        <path d="M663.5,358.5c-3.1-4.5-7.9-7.3-14.3-8.2-6.3-.9-11.7.3-16.2,3.9-1,.8-1.8,1.7-2.6,2.6.7-10.3-1.8-20-7.4-28.9-7-11.1-17-17.8-30.1-20.1l-29.1-5.1c-7.3-1.3-13.1-.2-17.4,3.3-4.3,3.5-7,8.5-8.2,15l-11.6,66v-11.4c0-8.9-1.9-15.4-5.7-19.4-3.8-4-8.9-6-15.4-6s-11.5,2.1-15.4,6.2c-3.9,4.1-5.8,10.5-5.8,19.2v7.2l-26-23,15.8-35.1c1.7-4.1,2.3-7.9,1.7-11.6-1-5.5-4.1-9.9-9.3-13.1-5.2-3.2-10.7-4.3-16.4-3.3-3.3.6-6.2,1.9-8.8,4-2.6,2.1-4.7,5-6.3,8.7l-16.9,37.8-3.8-21.8c-1.2-6.9-4.2-11.9-9.1-15-4.8-3.1-10.1-4.1-15.7-3.1-5.9,1-10.6,3.9-14.1,8.6-.7.9-1.2,1.8-1.7,2.8-1.6-2-3.5-3.9-5.9-5.7-8-6-18.3-9.5-30.9-10.6-13.5-1.2-24.6,2.4-33.4,10.7-8.1,7.7-12.7,17.8-13.8,30.3,0,10.2,3,18.6,9.1,25.2,5.5,6,14.5,11.3,27.1,15.8,3.6,1.3,6.2,2.8,7.7,4.5,1.5,1.7,2.2,3.3,2.1,5-.1,1.5-.8,2.7-2,3.7-1.2.9-2.7,1.3-4.3,1.2l-2.6-.8c-1-.5-4.5-3.3-10.4-8.6-4.8-4.3-9.3-6.6-13.6-6.9-2.4-.2-4.6,0-6.5.6-1.9.6-3.7,1.3-5.3,2.2-5.5,3-8.6,7.9-9.2,14.7-.7,8.4,2.3,15.9,9.2,22.7,8.1,8,20,12.7,35.7,14.1,15.3,1.3,27.8-2.2,37.5-10.5,8.7-7.6,13.6-17.1,14.6-28.7.9-10.4-1.5-19.7-7.4-27.9-3-4.1-7.8-8-14.5-11.6-6.7-3.7-14.7-7.6-24.1-11.9-1.1-.9-1.8-1.7-2.2-2.5-.4-.8-.5-1.7-.4-2.7.3-3.3,2.2-4.8,5.8-4.5,1.8.2,3.6,1,5.4,2.5,5.9,5.6,10.9,9.1,14.9,10.4l4.9,1.4c5.2.5,9.5-1.2,12.9-5,0,0,.1-.2.2-.3l12.3,69.7c1.3,7.5,4.6,13.1,9.7,16.5,4.7,3.2,9.8,4.3,15.4,3.3,5.9-1,10.6-4,14.1-8.8,3.5-4.8,4.6-10.7,3.4-17.8l-3.9-22,37.2,32.5c4.5,4,9.7,5.5,15.4,4.5,3.4-.6,6.5-2,9.3-4.1,1,2.1,2.3,4,3.9,5.6,3.7,3.8,8.6,5.7,14.7,5.7s11.3-2.1,15.2-6.4c1.7-1.9,3.1-4.2,4-6.8.6,1.7,1.4,3.3,2.4,4.6,2.8,3.6,7.3,6,13.4,7,5.7,1,11-.2,15.7-3.6,4.7-3.4,7.7-8.7,9-15.9l2.3-12.8,10.6,1.9c10.6,1.9,20.9,0,30.7-5.5,6.1-3.4,10.8-7.9,14.4-13.3l-3.3,22.2c-1.3,8.3,0,15,3.6,20.1,3.1,4.3,7.7,7,13.7,7.9,6.2.9,11.5-.4,16-4.1,4.5-3.7,7.3-9.4,8.5-17.2l4.5-30c1.3-8.8.4-15.5-2.7-20ZM589.4,354c-.4,2.3-1.5,3.8-3.2,4.6-1.8.8-4.8.8-9.1,0l-2.8-.5,2.4-13.6,4.7.8c3.4.6,5.7,1.7,6.8,3.2,1.2,1.5,1.5,3.3,1.2,5.4Z" fill="#064"/>
        <path d="M674.1,325.7c-1.7,11.6-12.5,19.6-24.1,17.8-11.6-1.7-19.6-12.5-17.8-24.1,1.7-11.6,12.5-19.6,24.1-17.8,11.6,1.7,19.6,12.5,17.8,24.1Z" fill="#0db14b"/>
      </g>
    </g>
  </g>
</svg>