<?xml version="1.0" encoding="utf-8"?>
<!-- Generator: Adobe Illustrator 28.2.0, SVG Export Plug-In . SVG Version: 6.00 Build 0)  -->
<svg version="1.1" id="Vrstva_1" xmlns="http://www.w3.org/2000/svg" xmlns:xlink="http://www.w3.org/1999/xlink" x="0px" y="0px"
	 viewBox="0 0 2241.7 1005" style="enable-background:new 0 0 2241.7 1005;" xml:space="preserve">
<style type="text/css">
	.st0{fill:#12100B;}
	.st1{fill:#FFFFFF;}
	.st2{fill-rule:evenodd;clip-rule:evenodd;fill:#C71517;}
	.st3{fill-rule:evenodd;clip-rule:evenodd;}
	.st4{fill-rule:evenodd;clip-rule:evenodd;fill:#FDC603;}
	.st5{fill:none;}
	.st6{fill:#089639;}
	.st7{fill:#293276;}
	.st8{fill-rule:evenodd;clip-rule:evenodd;fill:#FFFFFF;}
	.st9{fill:#6A6867;}
	.st10{fill:#CB6127;}
</style>
<g id="Layer_1-2">
	<g>
		<g>
			<path class="st9" d="M653.1,642.4c-10-9.5-14.9-22.6-14.9-39.3V362.1c0-5.6,1.4-9.9,4.4-13c3-3.1,6.9-4.6,11.9-4.6
				c5.3,0,9.4,1.6,12.3,4.6c3,3.1,4.4,7.4,4.4,13v241.8c0,7.6,2.1,13.8,6.4,18.5c4.2,4.7,9.9,7.1,17,7.1h146.4
				c11.4,0,17.1,4.6,17.1,13.7c0,4.4-1.4,7.8-4.4,10.1c-3,2.4-7.2,3.5-12.7,3.5h-146C677,656.7,663,652,653.1,642.4"/>
			<path class="st9" d="M950.1,645.7c-19.2-10.2-33.9-25.1-44.2-44.4s-15.4-42.4-15.4-69V362.1c0-5.6,1.4-9.9,4.4-13
				c3-3.1,6.9-4.6,11.9-4.6c5.3,0,9.4,1.6,12.3,4.6c3,3.1,4.4,7.4,4.4,13v171.4c0,31.6,8.3,56.1,25.1,73.4
				c16.7,17.3,40.2,25.9,70.4,25.9c30.2,0,54.3-8.7,71.5-26.2c17.1-17.4,25.7-41.8,25.7-73.2V362.1c0-5.6,1.5-9.9,4.6-13
				c3.1-3.1,7.1-4.6,12.1-4.6c5.3,0,9.3,1.6,12.1,4.6c2.8,3.1,4.2,7.4,4.2,13v170.2c0,25.8-5.3,48.4-15.9,67.9
				c-10.5,19.5-25.7,34.5-45.5,45.1c-19.8,10.5-43,15.8-69.7,15.8S969.3,656,950.1,645.7"/>
			<path class="st9" d="M1218.9,656.4c-3-3.1-4.4-7.4-4.4-13V464.1c0-24.3,5.2-45.5,15.6-63.5s25.3-31.9,44.6-41.5
				c19.3-9.7,42.1-14.5,68.2-14.5s48.7,4.9,67.9,14.5s34,23.5,44.4,41.5c10.4,18.1,15.6,39.2,15.6,63.5v179.4c0,5.6-1.4,9.9-4.2,13
				c-2.8,3.1-6.8,4.6-12.1,4.6c-5,0-9-1.6-12.1-4.6s-4.6-7.4-4.6-13V462.8c0-28.4-8.3-50.6-25.1-66.4c-16.7-15.9-40-23.7-69.9-23.7
				c-29.9,0-52.5,8-69.7,24.2c-17.1,16.1-25.7,38.1-25.7,66v180.7c0,5.6-1.5,9.9-4.4,13c-3,3.1-7,4.6-12.3,4.6c-5,0-9-1.6-11.9-4.6"
				/>
			<path class="st9" d="M1553.5,642.6c-10-9.4-14.9-22.6-14.9-39.6V401.7c0-16.4,4.9-29.3,14.8-38.7s23.5-14.1,41.1-14.1h136.3
				c11.4,0,17.1,4.7,17.1,14.1c0,4.1-1.5,7.3-4.4,9.7c-3,2.4-7.2,3.5-12.7,3.5h-135.9c-7,0-12.7,2.4-17,7.1
				c-4.2,4.7-6.4,10.9-6.4,18.5v84h125.7c11.5,0,17.1,4.7,17.1,14.1c0,4.4-1.6,7.8-4.6,10.1s-7.2,3.5-12.6,3.5h-125.7v90.5
				c0,7.6,2.1,13.8,6.4,18.5c4.2,4.7,9.9,7,17,7h145.5c11.5,0,17.1,4.6,17.1,13.7c0,4.4-1.6,7.8-4.6,10.1c-3.1,2.4-7.2,3.5-12.5,3.5
				h-145.1C1577.3,656.7,1563.4,652,1553.5,642.6"/>
			<path class="st10" d="M307.7,566c-21.9,0-41.5-4.6-58.1-13.5c-16.7-9-29.7-22.2-38.8-39.2c-9-16.8-13.5-36.9-13.5-59.5
				c0-22.6,4.5-41.7,13.2-58.1c8.8-16.4,21.6-29.3,38.2-38.1c16.5-8.7,36.3-13.2,59-13.2h198.8c5.3,0,9.5,1.4,12.5,4.3
				c3.1,2.9,4.6,6.8,4.6,11.7c0,4.9-1.6,9.1-4.6,12c-3,2.9-7.2,4.3-12.5,4.3H306.6c-25.8,0-46,6.8-59.9,20.4
				c-13.9,13.5-21.1,32.8-21.1,57.3s7.2,44.4,21.2,58.3c14.1,13.9,34.2,20.9,59.8,20.9h143.8c5.3,0,9.5,1.6,12.6,4.6
				c3,3,4.6,7,4.6,11.8c0,5.1-1.6,9.1-4.6,11.9c-3,2.7-7.2,4.1-12.5,4.1L307.7,566L307.7,566z"/>
			<path class="st10" d="M247.2,661.1c-5.3,0-9.4-1.4-12.4-4.1c-3.1-2.8-4.6-6.8-4.6-11.9c0-4.8,1.5-8.8,4.6-11.8s7.2-4.6,12.6-4.6
				h207.7c23.1,0,41.3-6.8,54-20.3c12.8-13.5,19.3-32.7,19.3-57s-6.6-43-19.7-56.8c-13-13.8-31-20.8-53.6-20.8H303.3
				c-5.3,0-9.5-1.4-12.5-4.3c-3.1-2.9-4.6-6.9-4.6-12s1.6-8.8,4.6-11.7c3-2.9,7.2-4.3,12.5-4.3h150.5c20.8,0,39.1,4.5,54.5,13.4
				c15.4,8.9,27.5,21.9,35.8,38.4c8.3,16.5,12.4,36.1,12.4,58.2c0,22.1-4.2,41.7-12.4,58c-8.3,16.4-20.3,29.3-35.8,38.2
				S474.6,661,453.8,661L247.2,661.1L247.2,661.1z"/>
			<g>
				<path class="st10" d="M1936,664c-41.9,0-81.5-15.9-111.8-45c-31.1-29.9-48.7-70.1-49.6-113.2c-0.9-43.1,15.1-84,45-115.1
					s70.1-48.7,113.2-49.6l0,0c1.1,0,2.2,0,3.3,0c87.5,0,159.6,70.3,161.4,158.2c1.8,89-69.2,162.9-158.2,164.7
					C1938.2,664,1937.1,664,1936,664z M1933.5,374.7c-34.1,0.7-66,14.6-89.6,39.2c-23.7,24.6-36.3,57-35.6,91.1
					c1.4,69.6,58.5,125.2,127.7,125.2c0.9,0,1.7,0,2.6,0c70.5-1.4,126.6-59.9,125.2-130.4c-1.4-69.6-58.5-125.2-127.7-125.2
					C1935.2,374.7,1934.3,374.7,1933.5,374.7L1933.5,374.7z"/>
			</g>
		</g>
	</g>
</g>
</svg>
