<?xml version="1.0" encoding="utf-8"?>
<!-- Generator: Adobe Illustrator 28.2.0, SVG Export Plug-In . SVG Version: 6.00 Build 0)  -->
<svg version="1.1" id="Vrstva_1" xmlns="http://www.w3.org/2000/svg" xmlns:xlink="http://www.w3.org/1999/xlink" x="0px" y="0px"
	 viewBox="0 0 1920 1005" style="enable-background:new 0 0 1920 1005;" xml:space="preserve">
<style type="text/css">
	.st0{fill:#12100B;}
	.st1{font-family:'Raleway-SemiBold';}
	.st2{font-size:178.9936px;}
	.st3{letter-spacing:-4;}
	.st4{font-family:'Raleway-ExtraLight';}
	.st5{font-size:111.871px;}
	.st6{letter-spacing:12;}
	.st7{fill:#FFFFFF;}
	.st8{fill-rule:evenodd;clip-rule:evenodd;fill:#C71517;}
	.st9{fill-rule:evenodd;clip-rule:evenodd;}
	.st10{fill-rule:evenodd;clip-rule:evenodd;fill:#FDC603;}
	.st11{fill:none;}
	.st12{fill:#089639;}
	.st13{fill:#293276;}
	.st14{fill-rule:evenodd;clip-rule:evenodd;fill:#FFFFFF;}
	.st15{fill:#6A6867;}
	.st16{fill:#CB6127;}
</style>
<g>
	<path class="st0" d="M283.7,300.4H122V490v0.9v85.8l136.9-76.3l84.2,54.1v-86.8l-84.2-54.1l-44.5,28.2v-52.5h69.3
		c63.5,0,107.4,43.9,107.4,113.2c0,69.3-43.9,113.2-107.4,113.2h-69.3v-37.9L122,626v78.6h161.7c111.5,0,196.4-87.8,196.4-202.1
		C480,388.2,395.1,300.4,283.7,300.4L283.7,300.4z"/>
	<text transform="matrix(1 0 0 1 556.6517 490.7021)" class="st0 st1 st2 st3">DA</text>
	<text transform="matrix(1 0 0 1 790.2142 490.7021)" class="st0 st1 st2">VID ST</text>
	<text transform="matrix(1 0 0 1 1338.8236 490.7021)" class="st0 st1 st2">A</text>
	<text transform="matrix(1 0 0 1 1457.683 490.7021)" class="st0 st1 st2">ŠEK</text>
	<text transform="matrix(1 0 0 1 556.6517 632.4365)" class="st0 st4 st5 st6">MODERNÍ REALIŤ</text>
	<text transform="matrix(1 0 0 1 1640.0892 632.4365)" class="st0 st4 st5 st6">ÁK</text>
</g>
</svg>
